<svg width="24" height="24" viewBox="0 0 24 24" fill="none" xmlns="http://www.w3.org/2000/svg">
<path d="M15.5167 17.15L17.15 15.5167L12.8333 11.2V5.83333H10.5V12.1333L15.5167 17.15V17.15M11.6667 23.3333C10.0528 23.3333 8.53611 23.0271 7.11667 22.4146C5.69722 21.8021 4.4625 20.9708 3.4125 19.9208C2.3625 18.8708 1.53125 17.6361 0.91875 16.2167C0.30625 14.7972 0 13.2806 0 11.6667C0 10.0528 0.30625 8.53611 0.91875 7.11667C1.53125 5.69722 2.3625 4.4625 3.4125 3.4125C4.4625 2.3625 5.69722 1.53125 7.11667 0.91875C8.53611 0.30625 10.0528 0 11.6667 0C13.2806 0 14.7972 0.30625 16.2167 0.91875C17.6361 1.53125 18.8708 2.3625 19.9208 3.4125C20.9708 4.4625 21.8021 5.69722 22.4146 7.11667C23.0271 8.53611 23.3333 10.0528 23.3333 11.6667C23.3333 13.2806 23.0271 14.7972 22.4146 16.2167C21.8021 17.6361 20.9708 18.8708 19.9208 19.9208C18.8708 20.9708 17.6361 21.8021 16.2167 22.4146C14.7972 23.0271 13.2806 23.3333 11.6667 23.3333V23.3333M11.6667 11.6667V11.6667V11.6667V11.6667V11.6667V11.6667V11.6667V11.6667V11.6667V11.6667M11.6667 21C14.2528 21 16.4549 20.091 18.2729 18.2729C20.091 16.4549 21 14.2528 21 11.6667C21 9.08056 20.091 6.87847 18.2729 5.06042C16.4549 3.24236 14.2528 2.33333 11.6667 2.33333C9.08056 2.33333 6.87847 3.24236 5.06042 5.06042C3.24236 6.87847 2.33333 9.08056 2.33333 11.6667C2.33333 14.2528 3.24236 16.4549 5.06042 18.2729C6.87847 20.091 9.08056 21 11.6667 21V21" fill="#DDB7FF"/>
</svg>
